<?xml version="1.0" encoding="UTF-8" standalone="no"?> <svg width="64" height="64" viewBox="0 0 64 64" fill="none" xmlns="http://www.w3.org/2000/svg">
<path d="M54 31.4499V10.6099C54 10.0794 53.7893 9.57072 53.4142 9.19565C53.0391 8.82058 52.5304 8.60986 52 8.60986C51.4696 8.60986 50.9609 8.82058 50.5858 9.19565C50.2107 9.57072 50 10.0794 50 10.6099V13.6999H14V10.6099C14 10.0794 13.7893 9.57072 13.4142 9.19565C13.0391 8.82058 12.5304 8.60986 12 8.60986C11.4696 8.60986 10.9609 8.82058 10.5858 9.19565C10.2107 9.57072 10 10.0794 10 10.6099V31.4499C7.75347 31.8716 5.72474 33.0646 4.26412 34.8228C2.8035 36.581 2.0027 38.7941 2 41.0799V48.2999C2 48.8303 2.21071 49.339 2.58579 49.7141C2.96086 50.0891 3.46957 50.2999 4 50.2999H10V53.3899C10 53.9203 10.2107 54.429 10.5858 54.8041C10.9609 55.1791 11.4696 55.3899 12 55.3899C12.5304 55.3899 13.0391 55.1791 13.4142 54.8041C13.7893 54.429 14 53.9203 14 53.3899V50.2999H50V53.3899C50 53.9203 50.2107 54.429 50.5858 54.8041C50.9609 55.1791 51.4696 55.3899 52 55.3899C52.5304 55.3899 53.0391 55.1791 53.4142 54.8041C53.7893 54.429 54 53.9203 54 53.3899V50.2999H60C60.5304 50.2999 61.0391 50.0891 61.4142 49.7141C61.7893 49.339 62 48.8303 62 48.2999V41.0799C61.9973 38.7941 61.1965 36.581 59.7359 34.8228C58.2753 33.0646 56.2465 31.8716 54 31.4499V31.4499ZM34 31.2699V24.4199H50V31.2699H34ZM14 17.6999H50V20.4199H14V17.6999ZM14 24.4199H30V31.2699H14V24.4199Z" fill="black"/>
</svg>
