<?xml version="1.0" encoding="UTF-8" standalone="no"?> <svg width="512" height="512" viewBox="0 0 512 512" fill="none" xmlns="http://www.w3.org/2000/svg">
<path d="M200 80C202.122 80 204.157 79.1571 205.657 77.6569C207.157 76.1566 208 74.1217 208 72V44C207.992 36.5765 205.039 29.4595 199.79 24.2104C194.54 18.9612 187.423 16.0085 180 16H108C100.577 16.0085 93.4595 18.9612 88.2104 24.2104C82.9612 29.4595 80.0085 36.5765 80 44V72C80 74.1217 80.8429 76.1566 82.3431 77.6569C83.8434 79.1571 85.8783 80 88 80C88 80 88.139 233.714 88.411 234.53L96.311 258.235C96.311 258.235 112.497 322.779 112.511 322.809C127.648 363.067 130.544 406.901 120.835 448.8L112.205 486.2C111.934 487.373 111.931 488.591 112.197 489.765C112.463 490.939 112.99 492.038 113.739 492.98C114.488 493.922 115.44 494.683 116.524 495.206C117.608 495.728 118.796 496 120 496H360C362.122 496 364.157 495.157 365.657 493.657C367.157 492.157 368 490.122 368 488V386.274C391.245 378.653 411.492 363.891 425.856 344.091C440.22 324.291 447.97 300.462 448 276V262C447.991 254.046 444.827 246.421 439.203 240.797C433.579 235.173 425.954 232.009 418 232H236C230.698 232.006 225.614 234.115 221.865 237.865C218.115 241.614 216.006 246.698 216 252V264H200V80ZM96 64V44C96.0034 40.8185 97.2688 37.7682 99.5185 35.5185C101.768 33.2688 104.818 32.0034 108 32H180C183.182 32.0034 186.232 33.2688 188.481 35.5185C190.731 37.7682 191.997 40.8185 192 44V64H96ZM109.766 248L104 230.7V80H184V248H109.766ZM352 480H130.057L136.425 452.4C145.965 411.226 144.173 368.237 131.24 328H232C233.061 328 234.078 328.421 234.828 329.172C235.579 329.922 236 330.939 236 332V348C236.013 359.666 240.653 370.85 248.902 379.098C257.15 387.347 268.334 391.987 280 392H332C338.704 392.001 345.396 391.422 352 390.269V480ZM232 252C232 250.939 232.421 249.922 233.172 249.172C233.922 248.421 234.939 248 236 248H418C421.712 248.004 425.27 249.48 427.895 252.105C430.52 254.73 431.996 258.288 432 262V264H232V252ZM431.921 280C430.858 305.798 419.869 330.188 401.25 348.077C382.63 365.966 357.82 375.97 332 376H280C272.577 375.992 265.46 373.039 260.21 367.79C254.961 362.54 252.008 355.423 252 348V332C251.994 326.698 249.885 321.614 246.135 317.865C242.386 314.115 237.302 312.006 232 312H126.246L114.246 264H184V272C184 274.122 184.843 276.157 186.343 277.657C187.843 279.157 189.878 280 192 280H431.921Z" fill="black"/>
</svg>
